Coordinates
version=1
nRows=11
nColumns=40
inDegrees=yes

Units are S.I. units (second, meters, Newtons, ...)
If the header above contains a line with 'inDegrees', this indicates whether rotational values are in degrees (yes) or radians (no).

endheader
time	pelvis_tilt	pelvis_list	pelvis_rotation	pelvis_tx	pelvis_ty	pelvis_tz	hip_flexion_r	hip_adduction_r	hip_rotation_r	knee_angle_r	knee_angle_r_beta	ankle_angle_r	subtalar_angle_r	mtp_angle_r	hip_flexion_l	hip_adduction_l	hip_rotation_l	knee_angle_l	knee_angle_l_beta	ankle_angle_l	subtalar_angle_l	mtp_angle_l	lumbar_extension	lumbar_bending	lumbar_rotation	arm_flex_r	arm_add_r	arm_rot_r	elbow_flex_r	pro_sup_r	wrist_flex_r	wrist_dev_r	arm_flex_l	arm_add_l	arm_rot_l	elbow_flex_l	pro_sup_l	wrist_flex_l	wrist_dev_l
      1.49000000	      3.81981624	     -6.38944978	     89.83676624	      0.23893988	      0.99489816	     -0.41575471	     17.14928963	      7.07430594	     -3.86901149	     13.80467631	      0.24093705	      1.75165485	      0.00000000	      0.00000000	     20.86836630	     -5.20637490	     -0.16483714	     63.55914878	      1.10931642	    -11.51190158	      0.00000000	      0.00000000	     -3.49991255	      2.71131773	     -0.66919435	      0.00000000	      0.00000000	      0.00000000	      0.00000000	      0.00000000	      0.00000000	      0.00000000	      0.00000000	      0.00000000	      0.00000000	      0.00000000	      0.00000000	      0.00000000	      0.00000000
      1.50000000	      3.50880048	     -6.41202839	     89.82218513	      0.23964421	      0.99693565	     -0.42920269	     15.77923347	      6.82120388	     -3.80839444	     12.88802365	      0.22493845	      2.08506364	      0.00000000	      0.00000000	     22.53450924	     -4.94745798	     -0.34036676	     63.35182701	      1.10569797	    -10.25042454	      0.00000000	      0.00000000	     -3.47346019	      2.24977352	     -0.57327744	      0.00000000	      0.00000000	      0.00000000	      0.00000000	      0.00000000	      0.00000000	      0.00000000	      0.00000000	      0.00000000	      0.00000000	      0.00000000	      0.00000000	      0.00000000	      0.00000000
      1.51000000	      3.22718389	     -6.39652591	     89.80346500	      0.24031768	      0.99871816	     -0.44267194	     14.38941518	      6.59904205	     -3.70872728	     12.00019629	      0.20944294	      2.39336275	      0.00000000	      0.00000000	     24.08208780	     -4.73210674	     -0.55926689	     62.87984556	      1.09746034	     -9.00696965	      0.00000000	      0.00000000	     -3.49596544	      1.82410044	     -0.46935942	      0.00000000	      0.00000000	      0.00000000	      0.00000000	      0.00000000	      0.00000000	      0.00000000	      0.00000000	      0.00000000	      0.00000000	      0.00000000	      0.00000000	      0.00000000	      0.00000000
      1.52000000	      2.96775721	     -6.29071329	     89.77921025	      0.24090026	      1.00035750	     -0.45630399	     12.88957576	      6.39769310	     -3.60497160	     11.09181561	      0.19358870	      2.71418517	      0.00000000	      0.00000000	     25.40557311	     -4.52201743	     -0.78284262	     62.08468065	      1.08358209	     -7.84184563	      0.00000000	      0.00000000	     -3.59976214	      1.44671728	     -0.37799008	      0.00000000	      0.00000000	      0.00000000	      0.00000000	      0.00000000	      0.00000000	      0.00000000	      0.00000000	      0.00000000	      0.00000000	      0.00000000	      0.00000000	      0.00000000	      0.00000000
      1.53000000	      2.70185128	     -6.40936508	     89.74774829	      0.24142173	      1.00134419	     -0.46980107	     11.72672198	      6.18277827	     -3.46662629	     10.34999949	      0.18064157	      3.12711022	      0.00000000	      0.00000000	     26.90813400	     -4.28056089	     -0.98738127	     61.06218703	      1.06573621	     -6.71837888	      0.00000000	      0.00000000	     -3.44220314	      1.06107774	     -0.31742373	      0.00000000	      0.00000000	      0.00000000	      0.00000000	      0.00000000	      0.00000000	      0.00000000	      0.00000000	      0.00000000	      0.00000000	      0.00000000	      0.00000000	      0.00000000	      0.00000000
      1.54000000	      2.47497980	     -6.46073968	     89.70524076	      0.24188412	      1.00208336	     -0.48342315	     10.48724338	      6.01092661	     -3.28871030	      9.60124220	      0.16757329	      3.55897245	      0.00000000	      0.00000000	     28.21697314	     -4.06999833	     -1.19184091	     59.75066320	      1.04284580	     -5.54974546	      0.00000000	      0.00000000	     -3.36244465	      0.74438180	     -0.25773472	      0.00000000	      0.00000000	      0.00000000	      0.00000000	      0.00000000	      0.00000000	      0.00000000	      0.00000000	      0.00000000	      0.00000000	      0.00000000	      0.00000000	      0.00000000	      0.00000000
      1.55000000	      2.31167533	     -6.58781875	     89.64756540	      0.24234118	      1.00235913	     -0.49703492	      9.37755024	      5.89563891	     -3.22148204	      8.92797583	      0.15582257	      4.04498559	      0.00000000	      0.00000000	     29.51408928	     -3.92020554	     -1.36342842	     58.19453155	      1.01568618	     -4.57953142	      0.00000000	      0.00000000	     -3.18879090	      0.49441238	     -0.13563458	      0.00000000	      0.00000000	      0.00000000	      0.00000000	      0.00000000	      0.00000000	      0.00000000	      0.00000000	      0.00000000	      0.00000000	      0.00000000	      0.00000000	      0.00000000	      0.00000000
      1.56000000	      2.13657113	     -6.40269615	     89.55582089	      0.24271552	      1.00279678	     -0.51099618	      7.86602608	      5.77818496	     -2.93343282	      8.18155860	      0.14279514	      4.50484909	      0.00000000	      0.00000000	     30.27743405	     -3.75655216	     -1.57274637	     56.27394468	      0.98216562	     -3.40158667	      0.00000000	      0.00000000	     -3.36575678	      0.24585607	     -0.02540119	      0.00000000	      0.00000000	      0.00000000	      0.00000000	      0.00000000	      0.00000000	      0.00000000	      0.00000000	      0.00000000	      0.00000000	      0.00000000	      0.00000000	      0.00000000	      0.00000000
      1.57000000	      2.01421334	     -6.43816588	     89.43367508	      0.24309323	      1.00254034	     -0.52483005	      6.66886129	      5.70647603	     -2.69334176	      7.56128717	      0.13196936	      5.04264921	      0.00000000	      0.00000000	     31.20371430	     -3.64787021	     -1.75954412	     54.13916513	      0.94490669	     -2.40315760	      0.00000000	      0.00000000	     -3.29962710	      0.06350682	      0.09553289	      0.00000000	      0.00000000	      0.00000000	      0.00000000	      0.00000000	      0.00000000	      0.00000000	      0.00000000	      0.00000000	      0.00000000	      0.00000000	      0.00000000	      0.00000000	      0.00000000
      1.58000000	      1.92727303	     -6.45161577	     89.25280816	      0.24352354	      1.00197584	     -0.53877138	      5.45987702	      5.67243513	     -2.41064324	      6.98240185	      0.12186590	      5.59741320	      0.00000000	      0.00000000	     31.96398775	     -3.58731032	     -1.93789986	     51.72925294	      0.90284578	     -1.51971412	      0.00000000	      0.00000000	     -3.24553893	     -0.07029292	      0.30248711	      0.00000000	      0.00000000	      0.00000000	      0.00000000	      0.00000000	      0.00000000	      0.00000000	      0.00000000	      0.00000000	      0.00000000	      0.00000000	      0.00000000	      0.00000000	      0.00000000
      1.59000000	      1.85675288	     -6.49441316	     89.00802003	      0.24394700	      1.00105636	     -0.55272367	      4.30246912	      5.64600378	     -2.04190833	      6.44629406	      0.11250906	      6.20452604	     -0.00000000	      0.00000000	     32.62401310	     -3.57005152	     -2.14511953	     49.04134669	      0.85593297	     -0.73333294	      0.00000000	     -0.00000000	     -3.18662252	     -0.16805949	      0.55996492	     -0.00000000	     -0.00000000	      0.00000000	      0.00000000	      0.00000000	      0.00000000	      0.00000000	     -0.00000000	     -0.00000000	     -0.00000000	      0.00000000	      0.00000000	      0.00000000	     -0.00000000
